<?xml version="1.0" encoding="utf-8"?>
<!-- Generator: Adobe Illustrator 19.2.1, SVG Export Plug-In . SVG Version: 6.00 Build 0)  -->
<svg version="1.1" id="Layer_1" xmlns="http://www.w3.org/2000/svg" xmlns:xlink="http://www.w3.org/1999/xlink" x="0px" y="0px"
	 viewBox="0 0 36.6 35.3" style="enable-background:new 0 0 36.6 35.3;" xml:space="preserve">
<style type="text/css">
	.st0{fill:#191717;}
</style>
<path class="st0" d="M18.2,0C8.2,0,0,8.1,0,18.1c0,8,5.3,14.8,12.4,17.2c0.9,0.1,1.2-0.4,1.2-0.9s0-1.6,0-3.1
	c-5,1.1-6.2-2.4-6.2-2.4c-0.8-2.1-2-2.7-2-2.7c-1.7-1.1,0.1-1.1,0.1-1.1C7.4,25.2,8.4,27,8.4,27c1.7,2.8,4.3,2,5.3,1.6
	c0.1-1.2,0.7-2,1.1-2.4c-4-0.4-8.3-2-8.3-9c0-2,0.7-3.6,1.9-4.9C8.3,11.9,7.6,10,8.6,7.5c0,0,1.6-0.4,5,1.9c1.5-0.4,3-0.6,4.6-0.6
	c1.6,0,3.1,0.2,4.6,0.6c3.5-2.3,5-1.9,5-1.9c1,2.4,0.3,4.3,0.2,4.8c1.1,1.2,1.9,2.9,1.9,4.9c0,7-4.3,8.4-8.3,8.9
	c0.7,0.6,1.2,1.7,1.2,3.3c0,2.4,0,4.3,0,5c0,0.4,0.3,1,1.2,0.9c7.3-2.4,12.4-9.2,12.4-17.2C36.5,8.1,28.3,0,18.2,0z"/>
</svg>
